<svg width="31" height="31" viewBox="0 0 31 31" fill="white" xmlns="http://www.w3.org/2000/svg">
<path d="M20.6668 16.3912V23.3533C20.6668 26.3758 18.6518 28.3779 15.6422 28.3779H7.60808C4.5985 28.3779 2.5835 26.3758 2.5835 23.3533V13.3171C2.5835 10.2946 4.5985 8.2925 7.60808 8.2925H12.5552C13.8856 8.2925 15.1643 8.82208 16.1072 9.765L19.1943 12.8392C20.1372 13.7821 20.6668 15.0608 20.6668 16.3912Z" stroke="white" stroke-width="1.9375" stroke-linecap="round" stroke-linejoin="round"/>
<path d="M28.4168 10.6562V17.6183C28.4168 20.6279 26.4018 22.6429 23.3922 22.6429H20.6668V16.3912C20.6668 15.0608 20.1372 13.7821 19.1943 12.8392L16.1072 9.765C15.1643 8.82208 13.8856 8.2925 12.5552 8.2925H10.3335V7.56917C10.3335 4.55958 12.3485 2.54458 15.3581 2.54458H20.3052C21.6356 2.54458 22.9143 3.07417 23.8572 4.01708L26.9443 7.10417C27.8872 8.04708 28.4168 9.32583 28.4168 10.6562Z" stroke="white" stroke-width="1.9375" stroke-linecap="round" stroke-linejoin="round"/>
</svg>
