<svg width="49" height="49" viewBox="0 0 49 49" fill="none" xmlns="http://www.w3.org/2000/svg">
<path d="M40.5589 39.0268C37.2737 45.3726 29.2151 46.7298 28.8688 46.7859C28.822 46.7953 28.7658 46.7953 28.719 46.7953C28.6629 46.7953 28.6067 46.7859 28.5506 46.7766C28.5131 46.7766 28.4757 46.7672 28.4382 46.7485C28.3693 46.7382 28.3045 46.7091 28.251 46.6642C28.2042 46.6362 28.1574 46.6081 28.12 46.5706C28.0797 46.5508 28.0445 46.522 28.0171 46.4864C28.0077 46.477 27.9983 46.4677 27.9983 46.4583C27.8954 46.3273 27.8299 46.1775 27.8018 46.0278C27.7924 46.0184 27.7924 46.0184 27.7924 46.0091C27.7831 45.9623 27.7831 45.9155 27.7831 45.8687C27.7831 45.8125 27.7924 45.7564 27.8018 45.7002C27.8018 45.6628 27.8205 45.616 27.8299 45.5692C27.8392 45.5504 27.8392 45.5411 27.8392 45.5317C27.8673 45.4849 27.886 45.4381 27.9141 45.4007C27.9422 45.3539 27.9703 45.3071 28.0077 45.2697C28.0264 45.2322 28.0639 45.1948 28.1013 45.1667L28.1294 45.1386C34.5126 39.448 33.0338 34.1223 32.9683 33.8977C32.9402 33.8322 32.9309 33.7573 32.9215 33.6918C32.622 28.9933 28.9343 23.7519 26.6131 20.8972C26.1732 25.3337 23.4308 32.0071 22.7382 33.6263C22.5604 34.0475 22.1018 34.2721 21.6712 34.1785C21.4568 34.1304 21.2662 34.0084 21.1327 33.8338C20.9993 33.6593 20.9315 33.4433 20.9412 33.2238C20.9973 31.7544 19.8087 29.7982 18.7604 28.4036C18.2924 29.5829 17.3939 31.4081 15.6904 34.3002C14.9323 35.5918 14.4924 36.9115 14.3895 38.2031C14.0244 42.8549 17.0195 44.5677 17.7683 44.914C17.8712 44.9608 17.9274 44.9795 17.9367 44.9795C18.0771 45.0357 18.1988 45.1105 18.2924 45.2229C18.3299 45.2509 18.3579 45.2884 18.386 45.3258C18.4328 45.41 18.4796 45.4943 18.4983 45.5785C18.5545 45.7189 18.5638 45.8687 18.5358 46.0184C18.5264 46.0746 18.5077 46.1307 18.489 46.1869C18.386 46.4677 18.1614 46.6736 17.89 46.7485C17.8432 46.7672 17.7964 46.7766 17.7496 46.7859C17.7028 46.7953 17.656 46.7953 17.6092 46.7953C17.5062 46.7953 17.3939 46.7766 17.2909 46.7391H17.2722C12.3303 44.8204 9.08255 41.9095 7.63181 38.0908C5.40422 32.2411 8.07171 25.9327 9.31654 23.4898C9.94364 22.2731 10.7486 21.0376 11.853 19.5962C17.9461 11.6499 19.6121 2.7302 19.6308 2.64596C19.687 2.29966 19.9397 2.01887 20.2767 1.91591C20.6042 1.81296 20.9693 1.90655 21.222 2.1499C26.4353 7.48488 30.5067 11.7529 33.3052 14.8415C35.7762 17.5652 37.7698 20.448 39.2299 23.4337C42.2624 29.6204 42.7117 34.8618 40.5589 39.0268Z" fill="white"/>
</svg>
